<svg xmlns="http://www.w3.org/2000/svg"
	xmlns:xlink="http://www.w3.org/1999/xlink" version="1.1" id="Image" x="0px" y="0px" viewBox="0 0 500 500" style="enable-background:new 0 0 500 500;" xml:space="preserve">
	<g id="OBJECTS">
		<g>
			<g>
				<g>
					<path style="fill:#252525;" d="M85.328,162.846c-3.777,6.896-4.133,14.728-1.682,21.592c7.104-1.631,13.513-6.147,17.29-13.043      c3.777-6.896,4.133-14.728,1.682-21.593C95.515,151.434,89.106,155.95,85.328,162.846z"/>
					<path style="fill:#252525;" d="M83.263,185.139l-0.178-0.5c-2.602-7.286-1.974-15.334,1.72-22.079l0,0      c3.694-6.745,10.139-11.607,17.68-13.338l0.517-0.119l0.178,0.5c2.601,7.286,1.974,15.334-1.72,22.08      c-3.695,6.745-10.14,11.606-17.68,13.338L83.263,185.139z M102.232,150.51c-6.985,1.756-12.934,6.333-16.38,12.623l0,0      c-3.446,6.291-4.099,13.768-1.818,20.599c6.984-1.755,12.933-6.332,16.38-12.623C103.86,164.818,104.512,157.34,102.232,150.51z      "/>
				</g>
				<g>
					<g>
						<path style="fill:#252525;" d="M93.405,185.853c-7.441,2.539-12.99,8.078-15.815,14.797c6.342,3.592,14.119,4.585,21.561,2.046       c7.441-2.539,12.99-8.078,15.815-14.797C108.624,184.308,100.847,183.315,93.405,185.853z"/>
						<path style="fill:#252525;" d="M90.672,204.697c-4.632,0-9.248-1.191-13.375-3.528l-0.462-0.262l0.205-0.489       c2.998-7.133,8.893-12.648,16.173-15.13c7.277-2.484,15.315-1.721,22.047,2.091l0.462,0.262l-0.205,0.489       c-2.999,7.132-8.893,12.648-16.173,15.131C96.527,204.223,93.597,204.697,90.672,204.697z M78.353,200.39       c6.338,3.419,13.816,4.056,20.607,1.742c6.788-2.316,12.318-7.393,15.245-13.973c-6.34-3.42-13.819-4.057-20.607-1.742l0,0       C86.81,188.734,81.28,193.81,78.353,200.39z"/>
					</g>
					<g>
						<path style="fill:#252525;" d="M74.954,178.342c-3.803-6.882-10.229-11.374-17.339-12.978       c-2.425,6.874-2.041,14.704,1.762,21.586c3.803,6.882,10.229,11.374,17.339,12.979       C79.142,193.055,78.757,185.224,74.954,178.342z"/>
						<path style="fill:#252525;" d="M77.102,200.627l-0.517-0.117c-7.547-1.704-14.009-6.541-17.729-13.272       c-3.721-6.731-4.378-14.777-1.804-22.073l0.177-0.5l0.517,0.117c7.547,1.703,14.009,6.54,17.73,13.272l0,0       c3.72,6.731,4.377,14.777,1.803,22.074L77.102,200.627z M58.004,166.069c-2.255,6.839-1.573,14.314,1.896,20.592       c3.469,6.277,9.435,10.832,16.427,12.562c2.255-6.839,1.574-14.315-1.895-20.593C70.962,172.353,64.995,167.798,58.004,166.069       z"/>
					</g>
				</g>
				<g>
					<g>
						<path style="fill:#252525;" d="M85.545,214.965c-6.791,3.963-11.131,10.492-12.568,17.638       c6.929,2.263,14.748,1.695,21.539-2.268c6.791-3.963,11.131-10.492,12.569-17.638       C100.155,210.433,92.335,211.001,85.545,214.965z"/>
						<path style="fill:#252525;" d="M81.23,234.514c-2.835,0-5.685-0.444-8.438-1.344l-0.505-0.165l0.105-0.52       c1.525-7.584,6.21-14.158,12.853-18.035c6.641-3.877,14.671-4.723,22.024-2.32l0.505,0.164l-0.105,0.52       c-1.525,7.585-6.21,14.158-12.853,18.036C90.661,233.275,85.965,234.514,81.23,234.514z M73.673,232.197       c6.891,2.093,14.345,1.238,20.542-2.377c6.195-3.616,10.608-9.688,12.173-16.717c-6.89-2.096-14.347-1.239-20.542,2.377       C79.651,219.096,75.238,225.167,73.673,232.197z"/>
					</g>
					<g>
						<path style="fill:#252525;" d="M65.971,211.26c-5.091-5.991-12.28-9.121-19.567-9.284c-1.015,7.218,0.914,14.817,6.006,20.808       c5.091,5.991,12.28,9.121,19.567,9.284C72.991,224.85,71.062,217.251,65.971,211.26z"/>
						<path style="fill:#252525;" d="M72.494,232.677l-0.53-0.012c-7.736-0.174-15.028-3.633-20.009-9.494       c-4.98-5.861-7.219-13.617-6.143-21.278l0.073-0.526l0.53,0.012c7.736,0.173,15.029,3.634,20.009,9.494l0,0       c4.98,5.861,7.219,13.616,6.143,21.278L72.494,232.677z M46.925,202.59c-0.855,7.151,1.295,14.343,5.939,19.808       c4.645,5.467,11.396,8.748,18.591,9.057c0.855-7.151-1.295-14.343-5.939-19.809C60.871,206.18,54.12,202.899,46.925,202.59z"/>
					</g>
				</g>
				<g>
					<g>
						<path style="fill:#252525;" d="M89.329,248.348c-6.351,4.636-10.002,11.574-10.702,18.829       c7.123,1.544,14.844,0.181,21.195-4.455c6.351-4.636,10.002-11.574,10.702-18.829C103.4,242.349,95.679,243.712,89.329,248.348       z"/>
						<path style="fill:#252525;" d="M84.261,268.378c-1.921,0-3.85-0.204-5.762-0.619l-0.517-0.112l0.05-0.528       c0.743-7.702,4.734-14.72,10.945-19.254c6.211-4.536,14.114-6.199,21.672-4.555l0.519,0.112l-0.05,0.528       c-0.743,7.702-4.733,14.72-10.944,19.255C95.53,266.594,89.943,268.377,84.261,268.378z M79.277,266.701       c7.067,1.383,14.398-0.232,20.193-4.461c5.793-4.228,9.563-10.719,10.403-17.872c-7.073-1.383-14.399,0.233-20.192,4.462l0,0       C83.887,253.058,80.117,259.549,79.277,266.701z"/>
					</g>
					<g>
						<path style="fill:#252525;" d="M69.479,246.66c-5.676-5.44-13.147-7.82-20.412-7.238c-0.272,7.284,2.422,14.646,8.099,20.087       c5.676,5.44,13.147,7.82,20.413,7.238C77.85,259.463,75.155,252.1,69.479,246.66z"/>
						<path style="fill:#252525;" d="M75.454,267.429c-6.954,0-13.671-2.667-18.702-7.489c-5.553-5.323-8.572-12.81-8.283-20.541       l0.02-0.53l0.529-0.042c7.712-0.62,15.32,2.08,20.873,7.401c5.553,5.322,8.572,12.808,8.283,20.541l-0.02,0.53l-0.529,0.042       C76.901,267.4,76.176,267.429,75.454,267.429z M49.648,239.979c-0.121,7.201,2.751,14.135,7.93,19.099       c5.179,4.963,12.225,7.533,19.418,7.112c0.121-7.202-2.751-14.136-7.93-19.099C63.887,242.128,56.841,239.557,49.648,239.979z"/>
					</g>
				</g>
				<g>
					<g>
						<path style="fill:#252525;" d="M95.002,278.19c-4.736,6.276-6.222,13.974-4.791,21.121c7.266-0.585,14.261-4.125,18.997-10.401       c4.736-6.276,6.222-13.974,4.792-21.122C106.734,268.374,99.738,271.915,95.002,278.19z"/>
						<path style="fill:#252525;" d="M89.73,299.95l-0.104-0.52c-1.52-7.587,0.267-15.46,4.899-21.599l0,0       c4.633-6.139,11.713-10.015,19.426-10.636l0.529-0.043l0.104,0.521c1.518,7.587-0.268,15.458-4.9,21.596       c-4.632,6.139-11.713,10.016-19.425,10.637L89.73,299.95z M95.479,278.549c-4.321,5.727-6.05,13.031-4.783,20.12       c7.166-0.726,13.715-4.392,18.035-10.118c4.321-5.725,6.051-13.029,4.783-20.119       C106.348,269.158,99.799,272.825,95.479,278.549L95.479,278.549z"/>
					</g>
					<g>
						<path style="fill:#252525;" d="M75.514,282.323c-7.008-3.564-14.848-3.678-21.634-1.017c1.848,7.051,6.56,13.318,13.568,16.881       c7.009,3.564,14.848,3.678,21.634,1.017C87.234,292.154,82.523,285.887,75.514,282.323z"/>
						<path style="fill:#252525;" d="M79.384,301.636c-4.206,0-8.392-0.978-12.206-2.917c-6.856-3.486-11.913-9.777-13.875-17.261       l-0.135-0.514l0.494-0.194c7.205-2.824,15.269-2.444,22.122,1.042c6.856,3.484,11.913,9.776,13.876,17.261l0.135,0.514       l-0.494,0.194C86.105,301.013,82.738,301.636,79.384,301.636z M54.598,281.671c1.969,6.928,6.726,12.734,13.121,15.985       c6.394,3.249,13.889,3.672,20.647,1.184c-1.971-6.929-6.729-12.735-13.122-15.985l0,0       C68.85,279.605,61.358,279.182,54.598,281.671z"/>
					</g>
				</g>
				<g>
					<g>
						<path style="fill:#252525;" d="M109.153,306.87c-3.868,6.845-4.327,14.672-1.967,21.568       c7.125-1.536,13.593-5.968,17.461-12.813c3.868-6.845,4.327-14.672,1.967-21.569       C119.489,295.594,113.021,300.025,109.153,306.87z"/>
						<path style="fill:#252525;" d="M106.793,329.134l-0.171-0.501c-2.506-7.321-1.771-15.359,2.011-22.056       c3.784-6.696,10.292-11.472,17.856-13.103l0.519-0.111l0.171,0.501c2.506,7.321,1.771,15.359-2.011,22.056       c-3.785,6.695-10.292,11.471-17.856,13.102L106.793,329.134z M126.218,294.759c-7.007,1.662-13.017,6.16-16.546,12.405       c-3.529,6.245-4.282,13.713-2.091,20.573c7.007-1.663,13.017-6.161,16.546-12.405       C127.656,309.087,128.409,301.619,126.218,294.759z"/>
					</g>
					<g>
						<path style="fill:#252525;" d="M90.379,313.534c-7.417-2.609-15.203-1.69-21.579,1.842c2.761,6.746,8.257,12.337,15.673,14.947       c7.417,2.609,15.203,1.69,21.58-1.841C103.292,321.735,97.796,316.143,90.379,313.534z"/>
						<path style="fill:#252525;" d="M93.191,332.405c-3.011,0-6.025-0.502-8.916-1.52c-7.256-2.552-13.096-8.124-16.027-15.284       l-0.2-0.491l0.464-0.258c6.768-3.749,14.811-4.436,22.066-1.882l0,0c7.256,2.552,13.097,8.123,16.028,15.284l0.2,0.491       l-0.464,0.257C102.27,331.258,97.736,332.405,93.191,332.405z M69.56,315.642c2.864,6.608,8.345,11.736,15.111,14.117       c6.765,2.381,14.251,1.813,20.622-1.545c-2.864-6.608-8.345-11.736-15.112-14.117l0,0       C83.416,311.716,75.93,312.285,69.56,315.642z"/>
					</g>
				</g>
				<g>
					<g>
						<path style="fill:#252525;" d="M125.811,334.142c-2.62,7.413-1.713,15.2,1.809,21.582c6.75-2.751,12.35-8.238,14.97-15.651       c2.62-7.413,1.713-15.201-1.809-21.583C134.031,321.242,128.431,326.729,125.811,334.142z"/>
						<path style="fill:#252525;" d="M127.353,356.477l-0.256-0.465c-3.738-6.773-4.412-14.816-1.849-22.07l0,0       c2.565-7.252,8.145-13.085,15.309-16.004l0.491-0.201l0.256,0.465c3.738,6.774,4.411,14.819,1.848,22.069       c-2.563,7.25-8.142,13.083-15.308,16.004L127.353,356.477z M126.373,334.341c-2.39,6.764-1.834,14.249,1.514,20.623       c6.613-2.855,11.75-8.329,14.139-15.09c2.391-6.761,1.835-14.248-1.514-20.623       C133.902,322.104,128.765,327.578,126.373,334.341L126.373,334.341z"/>
					</g>
					<g>
						<path style="fill:#252525;" d="M108.48,343.965c-7.757-1.281-15.266,0.976-20.932,5.561       c3.891,6.164,10.274,10.716,18.031,11.997c7.757,1.281,15.266-0.976,20.932-5.561       C122.62,349.799,116.237,345.247,108.48,343.965z"/>
						<path style="fill:#252525;" d="M109.846,362.471c-1.454,0-2.912-0.118-4.364-0.358c-7.589-1.254-14.309-5.725-18.438-12.268       l-0.283-0.449l0.412-0.333c6.014-4.867,13.817-6.941,21.403-5.687l0,0c7.59,1.254,14.311,5.725,18.439,12.268l0.283,0.449       l-0.412,0.333C122.023,360.362,115.99,362.471,109.846,362.471z M88.343,349.659c3.968,6.009,10.255,10.107,17.332,11.277       c7.085,1.165,14.351-0.691,20.041-5.105c-3.968-6.009-10.256-10.107-17.333-11.277l0,0       C101.308,343.388,94.034,345.243,88.343,349.659z"/>
					</g>
				</g>
				<g>
					<g>
						<path style="fill:#252525;" d="M149.565,362.572c-1.44,7.73,0.664,15.282,5.133,21.041       c6.242-3.764,10.924-10.053,12.363-17.782c1.44-7.73-0.664-15.283-5.132-21.041       C155.687,348.553,151.005,354.842,149.565,362.572z"/>
						<path style="fill:#252525;" d="M154.553,384.398l-0.325-0.419c-4.744-6.112-6.658-13.955-5.249-21.516l0,0       c1.409-7.561,6.017-14.189,12.642-18.184l0.453-0.275l0.325,0.419c4.744,6.112,6.657,13.955,5.249,21.517       c-1.409,7.561-6.017,14.188-12.642,18.183L154.553,384.398z M150.151,362.682c-1.312,7.05,0.397,14.359,4.695,20.139       c6.088-3.845,10.314-10.048,11.629-17.099c1.312-7.052-0.397-14.361-4.695-20.14       C155.693,349.426,151.466,355.629,150.151,362.682L150.151,362.682z"/>
					</g>
					<g>
						<path style="fill:#252525;" d="M133.967,374.963c-7.862-0.063-14.93,3.331-19.816,8.739c4.799,5.486,11.811,8.994,19.673,9.057       s14.93-3.331,19.817-8.739C148.841,378.534,141.829,375.026,133.967,374.963z"/>
						<path style="fill:#252525;" d="M134.037,393.356c-0.072,0-0.146-0.001-0.218-0.001c-7.691-0.062-15.024-3.437-20.118-9.26       l-0.35-0.4l0.355-0.393c5.139-5.687,12.436-8.937,20.046-8.937c0.072,0,0.146,0.001,0.218,0.001       c7.689,0.062,15.023,3.437,20.118,9.26l0.35,0.398l-0.355,0.394C148.944,390.106,141.648,393.356,134.037,393.356z        M114.955,383.709c4.853,5.321,11.7,8.395,18.873,8.452c7.172,0.017,14.069-2.905,19.007-8.149       c-4.854-5.321-11.701-8.395-18.873-8.452l0,0C126.789,375.539,119.893,378.465,114.955,383.709z"/>
					</g>
				</g>
				<g>
					<path style="fill:#252525;" d="M182.228,403.007c-41.041-24.207-75.536-61.802-94.637-103.148      c-19.97-43.222-21.549-85.814-4.447-119.933l4.268,2.138c-16.438,32.794-14.835,73.916,4.512,115.792      c18.705,40.487,52.504,77.313,92.729,101.039L182.228,403.007z"/>
				</g>
			</g>
			<g>
				<g>
					<path style="fill:#252525;" d="M412.232,162.3c3.777,6.896,4.133,14.728,1.682,21.592c-7.104-1.631-13.513-6.147-17.29-13.043      c-3.777-6.896-4.133-14.728-1.682-21.593C402.046,150.888,408.454,155.404,412.232,162.3z"/>
					<path style="fill:#252525;" d="M414.297,184.593l-0.518-0.119c-7.54-1.731-13.984-6.592-17.68-13.337      c-3.694-6.746-4.321-14.794-1.72-22.08l0.178-0.5l0.517,0.119c7.541,1.731,13.985,6.592,17.68,13.337l0,0      c3.694,6.746,4.321,14.794,1.72,22.08L414.297,184.593z M395.328,149.964c-2.281,6.831-1.628,14.308,1.818,20.599      c3.447,6.291,9.396,10.868,16.38,12.623c2.281-6.831,1.628-14.308-1.818-20.599l0,0      C408.262,156.296,402.313,151.719,395.328,149.964z"/>
				</g>
				<g>
					<g>
						<path style="fill:#252525;" d="M404.155,185.853c7.441,2.539,12.99,8.078,15.815,14.797       c-6.342,3.592-14.119,4.585-21.561,2.046c-7.441-2.539-12.99-8.078-15.815-14.797       C388.936,184.308,396.713,183.315,404.155,185.853z"/>
						<path style="fill:#252525;" d="M406.888,204.697c-2.925,0-5.855-0.475-8.673-1.436c-7.279-2.483-13.173-7.999-16.173-15.131       l-0.205-0.489l0.461-0.262c6.736-3.813,14.772-4.573,22.047-2.091l0,0c7.28,2.483,13.174,7.997,16.173,15.13l0.205,0.489       l-0.462,0.262C416.137,203.506,411.52,204.697,406.888,204.697z M383.355,188.159c2.928,6.581,8.458,11.657,15.245,13.973       c6.788,2.316,14.269,1.677,20.607-1.742c-2.927-6.58-8.457-11.656-15.245-13.972l0,0       C397.175,184.103,389.695,184.74,383.355,188.159z"/>
					</g>
					<g>
						<path style="fill:#252525;" d="M422.606,178.342c3.803-6.882,10.228-11.374,17.339-12.978       c2.425,6.874,2.041,14.704-1.762,21.586c-3.803,6.882-10.229,11.374-17.339,12.979       C418.418,193.055,418.803,185.224,422.606,178.342z"/>
						<path style="fill:#252525;" d="M420.458,200.627l-0.177-0.5c-2.574-7.297-1.917-15.342,1.803-22.074l0,0       c3.721-6.732,10.183-11.569,17.73-13.272l0.517-0.117l0.177,0.5c2.574,7.296,1.917,15.341-1.803,22.073       c-3.721,6.731-10.183,11.568-17.73,13.272L420.458,200.627z M423.128,178.631c-3.469,6.278-4.15,13.753-1.895,20.593       c6.991-1.73,12.957-6.285,16.428-12.562c3.469-6.278,4.15-13.754,1.895-20.592       C432.565,167.798,426.598,172.353,423.128,178.631L423.128,178.631z"/>
					</g>
				</g>
				<g>
					<g>
						<path style="fill:#252525;" d="M412.016,214.965c6.79,3.963,11.131,10.492,12.568,17.638       c-6.929,2.263-14.748,1.695-21.539-2.268c-6.79-3.963-11.131-10.492-12.569-17.638       C397.405,210.433,405.225,211.001,412.016,214.965z"/>
						<path style="fill:#252525;" d="M416.33,234.514c-4.735,0-9.43-1.239-13.586-3.664c-6.642-3.877-11.327-10.451-12.853-18.036       l-0.105-0.52l0.505-0.164c7.356-2.403,15.383-1.557,22.025,2.32c6.642,3.876,11.326,10.45,12.852,18.035l0.105,0.52       l-0.505,0.165C422.015,234.07,419.165,234.514,416.33,234.514z M391.172,213.103c1.565,7.029,5.978,13.101,12.173,16.717       c6.195,3.615,13.653,4.47,20.542,2.377c-1.565-7.029-5.977-13.101-12.172-16.717       C405.52,211.864,398.062,211.008,391.172,213.103z"/>
					</g>
					<g>
						<path style="fill:#252525;" d="M431.589,211.26c5.092-5.991,12.28-9.121,19.567-9.284c1.015,7.218-0.914,14.817-6.006,20.808       c-5.091,5.991-12.28,9.121-19.567,9.284C424.569,224.85,426.498,217.251,431.589,211.26z"/>
						<path style="fill:#252525;" d="M425.066,232.677l-0.073-0.526c-1.077-7.662,1.163-15.418,6.143-21.278l0,0       c4.979-5.861,12.273-9.321,20.009-9.494l0.53-0.012l0.073,0.526c1.077,7.662-1.163,15.418-6.143,21.278       c-4.981,5.861-12.273,9.32-20.009,9.494L425.066,232.677z M432.044,211.646c-4.644,5.465-6.794,12.658-5.939,19.809       c7.195-0.309,13.946-3.59,18.591-9.057c4.644-5.465,6.794-12.657,5.939-19.808C443.44,202.899,436.689,206.18,432.044,211.646       L432.044,211.646z"/>
					</g>
				</g>
				<g>
					<g>
						<path style="fill:#252525;" d="M408.231,248.348c6.351,4.636,10.002,11.574,10.702,18.829       c-7.124,1.544-14.844,0.181-21.195-4.455c-6.35-4.636-10.002-11.574-10.702-18.829       C394.16,242.349,401.881,243.712,408.231,248.348z"/>
						<path style="fill:#252525;" d="M413.299,268.378c-5.683,0-11.269-1.784-15.913-5.173c-6.211-4.535-10.2-11.553-10.944-19.255       l-0.05-0.528l0.519-0.112c7.562-1.638,15.46,0.022,21.672,4.555l0,0c6.211,4.534,10.202,11.552,10.945,19.254l0.05,0.528       l-0.517,0.112C417.151,268.174,415.218,268.378,413.299,268.378z M387.687,244.368c0.84,7.153,4.61,13.644,10.403,17.872       c5.794,4.23,13.122,5.844,20.193,4.461c-0.84-7.152-4.61-13.643-10.404-17.871l0,0       C402.086,244.6,394.755,242.983,387.687,244.368z"/>
					</g>
					<g>
						<path style="fill:#252525;" d="M428.081,246.66c5.676-5.44,13.147-7.82,20.413-7.238c0.272,7.284-2.422,14.646-8.099,20.087       c-5.676,5.44-13.147,7.82-20.413,7.238C419.71,259.463,422.405,252.1,428.081,246.66z"/>
						<path style="fill:#252525;" d="M422.106,267.429c-0.723,0-1.445-0.029-2.171-0.087l-0.529-0.042l-0.02-0.53       c-0.289-7.732,2.73-15.218,8.283-20.541c5.552-5.321,13.156-8.021,20.873-7.401l0.529,0.042l0.02,0.53       c0.289,7.731-2.73,15.217-8.283,20.541C435.778,264.76,429.059,267.429,422.106,267.429z M420.564,266.19       c7.19,0.423,14.24-2.149,19.418-7.112c5.179-4.964,8.051-11.898,7.93-19.099c-7.195-0.423-14.239,2.149-19.418,7.112       C423.315,252.055,420.443,258.988,420.564,266.19z"/>
					</g>
				</g>
				<g>
					<g>
						<path style="fill:#252525;" d="M402.558,278.19c4.736,6.276,6.222,13.974,4.791,21.121       c-7.266-0.585-14.261-4.125-18.997-10.401c-4.736-6.276-6.222-13.974-4.792-21.122       C390.826,268.374,397.822,271.915,402.558,278.19z"/>
						<path style="fill:#252525;" d="M407.83,299.95l-0.529-0.043c-7.712-0.621-14.793-4.498-19.425-10.637       c-4.632-6.138-6.419-14.01-4.9-21.596l0.104-0.521l0.529,0.043c7.714,0.621,14.793,4.497,19.426,10.636l0,0       c4.632,6.139,6.419,14.012,4.899,21.599L407.83,299.95z M384.046,268.432c-1.268,7.09,0.461,14.393,4.783,20.119       c4.32,5.725,10.869,9.392,18.035,10.118c1.268-7.089-0.462-14.393-4.783-20.12l0,0       C397.761,272.825,391.212,269.158,384.046,268.432z"/>
					</g>
					<g>
						<path style="fill:#252525;" d="M422.046,282.323c7.008-3.564,14.848-3.678,21.634-1.017       c-1.848,7.051-6.559,13.318-13.568,16.881c-7.009,3.564-14.848,3.678-21.634,1.017       C410.326,292.154,415.037,285.887,422.046,282.323z"/>
						<path style="fill:#252525;" d="M418.176,301.636c-3.354,0-6.719-0.622-9.916-1.875l-0.494-0.194l0.135-0.514       c1.961-7.485,7.019-13.777,13.875-17.261l0,0c6.855-3.487,14.918-3.866,22.122-1.042l0.494,0.194l-0.135,0.514       c-1.961,7.484-7.019,13.776-13.875,17.261C426.568,300.658,422.381,301.636,418.176,301.636z M409.196,298.84       c6.758,2.488,14.251,2.064,20.645-1.184c6.394-3.251,11.151-9.057,13.121-15.985c-6.761-2.492-14.253-2.066-20.645,1.184l0,0       C415.922,286.105,411.165,291.912,409.196,298.84z"/>
					</g>
				</g>
				<g>
					<g>
						<path style="fill:#252525;" d="M388.407,306.87c3.868,6.845,4.327,14.672,1.967,21.568       c-7.125-1.536-13.593-5.968-17.461-12.813c-3.868-6.845-4.327-14.672-1.967-21.569       C378.071,295.594,384.539,300.025,388.407,306.87z"/>
						<path style="fill:#252525;" d="M390.767,329.134l-0.519-0.112c-7.563-1.632-14.07-6.407-17.856-13.102       c-3.783-6.696-4.517-14.735-2.011-22.056l0.171-0.501l0.519,0.111c7.563,1.632,14.072,6.407,17.856,13.103       c3.783,6.696,4.517,14.735,2.011,22.056L390.767,329.134z M371.342,294.759c-2.191,6.86-1.438,14.328,2.091,20.573       c3.529,6.244,9.538,10.742,16.546,12.405c2.191-6.861,1.438-14.328-2.091-20.573       C384.359,300.919,378.349,296.421,371.342,294.759z"/>
					</g>
					<g>
						<path style="fill:#252525;" d="M407.181,313.534c7.417-2.609,15.203-1.69,21.579,1.842       c-2.761,6.746-8.257,12.337-15.673,14.947c-7.417,2.609-15.203,1.69-21.58-1.841       C394.268,321.735,399.764,316.143,407.181,313.534z"/>
						<path style="fill:#252525;" d="M404.369,332.405c-4.545,0-9.078-1.147-13.151-3.402l-0.464-0.257l0.201-0.491       c2.931-7.161,8.773-12.732,16.028-15.284c7.254-2.553,15.298-1.867,22.066,1.882l0.464,0.258l-0.2,0.491       c-2.931,7.16-8.772,12.732-16.027,15.284C410.395,331.901,407.379,332.405,404.369,332.405z M392.267,328.214       c6.372,3.359,13.857,3.925,20.622,1.545c6.766-2.381,12.247-7.51,15.111-14.117c-6.37-3.357-13.856-3.925-20.621-1.545l0,0       C400.612,316.478,395.131,321.606,392.267,328.214z"/>
					</g>
				</g>
				<g>
					<g>
						<path style="fill:#252525;" d="M371.749,334.142c2.62,7.413,1.713,15.2-1.809,21.582c-6.75-2.751-12.35-8.238-14.97-15.651       c-2.62-7.413-1.713-15.201,1.809-21.583C363.529,321.242,369.129,326.729,371.749,334.142z"/>
						<path style="fill:#252525;" d="M370.207,356.477l-0.491-0.201c-7.166-2.92-12.746-8.754-15.308-16.004       c-2.564-7.251-1.889-15.295,1.849-22.069l0.256-0.465l0.491,0.201c7.165,2.919,12.744,8.752,15.308,16.004       c2.564,7.251,1.889,15.295-1.849,22.07L370.207,356.477z M357.047,319.251c-3.349,6.376-3.905,13.861-1.514,20.623       c2.389,6.761,7.526,12.235,14.139,15.09c3.349-6.376,3.905-13.861,1.514-20.623       C368.795,327.578,363.658,322.105,357.047,319.251z"/>
					</g>
					<g>
						<path style="fill:#252525;" d="M389.081,343.965c7.757-1.281,15.265,0.976,20.932,5.561       c-3.891,6.164-10.274,10.716-18.031,11.997c-7.757,1.281-15.266-0.976-20.932-5.561       C374.94,349.799,381.323,345.247,389.081,343.965z"/>
						<path style="fill:#252525;" d="M387.714,362.471c-6.144,0-12.177-2.108-17.04-6.045l-0.413-0.333l0.283-0.449       c4.13-6.542,10.851-11.014,18.44-12.268l0,0c7.591-1.257,15.391,0.82,21.403,5.687l0.413,0.333l-0.283,0.449       c-4.129,6.542-10.849,11.014-18.438,12.268C390.627,362.353,389.167,362.471,387.714,362.471z M371.844,355.831       c5.689,4.414,12.96,6.27,20.041,5.105c7.077-1.17,13.364-5.269,17.332-11.277c-5.69-4.416-12.96-6.271-20.04-5.105l0,0       C382.101,345.724,375.813,349.822,371.844,355.831z"/>
					</g>
				</g>
				<g>
					<g>
						<path style="fill:#252525;" d="M347.995,362.572c1.44,7.73-0.664,15.282-5.133,21.041       c-6.242-3.764-10.924-10.053-12.363-17.782c-1.44-7.73,0.664-15.283,5.132-21.041       C341.873,348.553,346.555,354.842,347.995,362.572z"/>
						<path style="fill:#252525;" d="M343.008,384.398l-0.453-0.275c-6.626-3.995-11.234-10.622-12.642-18.183       c-1.409-7.561,0.503-15.404,5.248-21.517l0.325-0.419l0.453,0.275c6.625,3.995,11.233,10.623,12.642,18.184l0,0       c1.408,7.561-0.505,15.402-5.246,21.516L343.008,384.398z M335.78,345.581c-4.298,5.779-6.007,13.088-4.694,20.14       c1.313,7.052,5.54,13.255,11.629,17.099c4.297-5.779,6.006-13.088,4.694-20.139       C346.094,355.629,341.867,349.426,335.78,345.581z"/>
					</g>
					<g>
						<path style="fill:#252525;" d="M363.594,374.963c7.862-0.063,14.93,3.331,19.816,8.739c-4.799,5.486-11.811,8.994-19.673,9.057       c-7.862,0.063-14.93-3.331-19.817-8.739C348.719,378.534,355.731,375.026,363.594,374.963z"/>
						<path style="fill:#252525;" d="M363.523,393.356c-7.612,0-14.907-3.249-20.047-8.937l-0.355-0.394l0.35-0.398       c5.095-5.823,12.428-9.198,20.117-9.26l0,0c0.072,0,0.146-0.001,0.218-0.001c7.613,0,14.908,3.249,20.046,8.937l0.355,0.394       l-0.35,0.398c-5.094,5.823-12.426,9.198-20.117,9.26C363.669,393.355,363.595,393.356,363.523,393.356z M344.725,384.012       c4.891,5.193,11.701,8.15,18.798,8.15c0.07,0,0.139,0,0.209-0.001c7.173-0.057,14.02-3.131,18.873-8.452       c-4.938-5.244-11.807-8.213-19.007-8.149l0,0C356.426,375.617,349.579,378.691,344.725,384.012z"/>
					</g>
				</g>
				<g>
					<path style="fill:#252525;" d="M315.332,403.007l-2.424-4.111c40.225-23.725,74.023-60.552,92.728-101.039      c19.347-41.876,20.951-82.998,4.512-115.792l4.268-2.138c17.102,34.118,15.522,76.711-4.447,119.933      C390.868,341.204,356.374,378.8,315.332,403.007z"/>
				</g>
			</g>
			<rect x="199.567" y="400.518" style="fill:none;" width="98.426" height="21.294"/>


			<g>
				<g>
					<path style="fill:#FFFFFF;" d="M371.181,248.246c0-17.811,0-35.623,0-53.434v-72.33c0-7.309-5.234-13.568-12.427-14.863      L258.529,89.583c-3.785-0.681-7.661-0.681-11.446,0l-100.225,18.035c-7.193,1.294-12.427,7.554-12.427,14.863v72.33      c0,17.812,0,35.623,0,53.434c0,20.649-1.69,40.884,8.132,59.825c4.855,9.364,11.236,17.861,18.544,25.448      c21.92,22.754,51.315,37.171,81.171,46.958c6.846,2.244,14.209,2.244,21.055,0c29.856-9.788,59.251-24.205,81.171-46.958      c7.309-7.586,13.689-16.084,18.544-25.448C372.87,289.129,371.181,268.895,371.181,248.246z"/>
					<path style="fill:#12255E;" d="M252.805,385.751c-3.918,0-7.834-0.623-11.642-1.873c-35.91-11.773-62.94-27.432-82.634-47.876      c-7.926-8.226-14.367-17.07-19.145-26.284c-8.972-17.302-8.777-35.744-8.59-53.578c0.028-2.623,0.056-5.256,0.056-7.895V122.482      c0-9.05,6.465-16.783,15.372-18.386L246.448,86.06c4.219-0.759,8.495-0.759,12.714,0l100.225,18.035      c8.908,1.604,15.373,9.336,15.373,18.386v125.763c0,2.64,0.028,5.272,0.056,7.895c0.188,17.835,0.382,36.276-8.59,53.578      c-4.778,9.213-11.219,18.057-19.145,26.284c-19.695,20.444-46.724,36.104-82.634,47.876      C260.64,385.126,256.722,385.751,252.805,385.751z M252.805,92.651c-1.7,0-3.4,0.151-5.089,0.456l-100.225,18.035      c-5.493,0.989-9.48,5.757-9.48,11.339v125.763c0,2.664-0.028,5.322-0.056,7.971c-0.186,17.737-0.364,34.491,7.786,50.207      c4.461,8.602,10.499,16.881,17.944,24.612c18.865,19.58,44.937,34.64,79.709,46.04c6.159,2.02,12.667,2.018,18.824,0      c34.772-11.4,60.844-26.459,79.709-46.04c7.445-7.731,13.483-16.011,17.944-24.612c8.149-15.716,7.972-32.47,7.786-50.207      c-0.028-2.649-0.056-5.307-0.056-7.971V122.482c0-5.582-3.988-10.351-9.481-11.339L257.894,93.107      C256.206,92.803,254.505,92.651,252.805,92.651z"/>
				</g>
				<g>
					<defs>
						<path id="SVGID_1_" d="M359.482,246.997c0-16.051,0-32.102,0-48.154v-65.182c0-6.586-4.717-12.228-11.199-13.394l-90.32-16.253       c-3.411-0.614-6.904-0.614-10.315,0l-90.32,16.253c-6.482,1.166-11.199,6.808-11.199,13.394v65.182c0,16.051,0,32.102,0,48.154       c0,18.608-1.523,36.843,7.329,53.913c4.376,8.439,10.125,16.096,16.712,22.933c19.754,20.505,46.243,33.497,73.149,42.318       c6.17,2.022,12.805,2.022,18.974,0c26.906-8.82,53.395-21.813,73.149-42.318c6.586-6.837,12.336-14.494,16.712-22.933       C361.005,283.841,359.482,265.606,359.482,246.997z"/>
					</defs>
					<clipPath id="SVGID_00000159428938922862828850000009923045729687548041_">
						<use xlink:href="#SVGID_1_" style="overflow:visible;"/>
					</clipPath>
					<g style="clip-path:url(#SVGID_00000159428938922862828850000009923045729687548041_);">
						<path style="fill:#12255E;" d="M359.482,246.997c0-16.051,0-32.102,0-48.154v-65.182c0-6.586-4.717-12.228-11.199-13.394       l-90.32-16.253c-3.411-0.614-6.904-0.614-10.315,0l-90.32,16.253c-6.482,1.166-11.199,6.808-11.199,13.394v65.182       c0,16.051,0,32.102,0,48.154c0,18.608-1.523,36.843,7.329,53.913c4.376,8.439,10.125,16.096,16.712,22.933       c19.754,20.505,46.243,33.497,73.149,42.318c6.17,2.022,12.805,2.022,18.974,0c26.906-8.82,53.395-21.813,73.149-42.318       c6.586-6.837,12.336-14.494,16.712-22.933C361.005,283.841,359.482,265.606,359.482,246.997z"/>
					</g>
					<g style="opacity:0.15;clip-path:url(#SVGID_00000159428938922862828850000009923045729687548041_);">

						<rect x="203.973" y="148.365" transform="matrix(0.7071 -0.7071 0.7071 0.7071 -153.2081 240.346)" style="fill:#FFFFFF;" width="19.094" height="313.494"/>
					</g>
					<g style="opacity:0.15;clip-path:url(#SVGID_00000159428938922862828850000009923045729687548041_);">

						<rect x="236.814" y="116.873" transform="matrix(0.7071 -0.7071 0.7071 0.7071 -121.3213 254.3439)" style="fill:#FFFFFF;" width="19.094" height="313.495"/>
					</g>
					<g style="opacity:0.15;clip-path:url(#SVGID_00000159428938922862828850000009923045729687548041_);">

						<rect x="244.341" y="60.275" transform="matrix(0.7071 -0.7071 0.7071 0.7071 -79.0957 243.09)" style="fill:#FFFFFF;" width="19.094" height="313.494"/>
					</g>
					<g style="opacity:0.15;clip-path:url(#SVGID_00000159428938922862828850000009923045729687548041_);">

						<rect x="284.238" y="33.464" transform="matrix(0.7071 -0.7071 0.7071 0.7071 -48.4521 263.4503)" style="fill:#FFFFFF;" width="19.094" height="313.495"/>
					</g>
					<g style="opacity:0.15;clip-path:url(#SVGID_00000159428938922862828850000009923045729687548041_);">

						<rect x="323.804" y="5.286" transform="matrix(0.7071 -0.7071 0.7071 0.7071 -16.9386 283.1722)" style="fill:#FFFFFF;" width="19.094" height="313.495"/>
					</g>
				</g>
			</g>
			<g>
				<g>
					<g id="XMLID_1_">
						<g>
							<path style="fill:#252525;" d="M376.991,105.545v13.425c0,0.644-0.525,1.146-1.146,1.146h-1.325v-15.716h1.325        C376.466,104.399,376.991,104.924,376.991,105.545z"/>
							<polygon style="fill:#252525;" points="374.521,104.399 374.521,120.115 374.521,121.583 372.97,121.583 372.97,120.115         372.97,104.399 372.97,102.955 374.521,102.955       "/>
							<rect x="371.108" y="104.399" style="fill:#252525;" width="1.862" height="15.716"/>
							<polygon style="fill:#252525;" points="371.108,120.115 371.108,121.583 369.557,121.583 369.557,120.115 369.557,104.399         369.557,102.955 371.108,102.955 371.108,104.399       "/>
							<rect x="367.695" y="104.399" style="fill:#252525;" width="1.862" height="15.716"/>
							<polygon style="fill:#252525;" points="367.695,120.115 367.695,121.583 366.144,121.583 366.144,120.115 366.144,104.399         366.144,102.955 367.695,102.955 367.695,104.399       "/>
							<rect x="363.793" y="104.399" style="fill:#252525;" width="2.351" height="15.716"/>
							<polygon style="fill:#252525;" points="363.793,120.115 363.793,131.13 358.483,131.13 358.483,125.127 358.483,99.399         358.483,93.397 363.793,93.397 363.793,104.399       "/>
							<rect x="354.748" y="99.399" style="fill:#252525;" width="3.735" height="25.728"/>
							<path style="fill:#252525;" d="M354.748,125.127v28.783c0,4.487-3.628,8.115-8.115,8.115h-5.286        c-4.487,0-8.126-3.628-8.126-8.115V70.616c0-4.487,3.64-8.115,8.126-8.115h5.286c4.487,0,8.115,3.628,8.115,8.115v28.783        V125.127z"/>
							<path style="fill:#252525;" d="M333.22,153.91v11.325c0,4.487-3.64,8.115-8.127,8.115h-5.274        c-4.487,0-8.127-3.628-8.127-8.115V59.303c0-4.487,3.64-8.126,8.127-8.126h5.274c4.487,0,8.127,3.64,8.127,8.126v11.313        V153.91z"/>
							<path style="fill:#252525;" d="M311.693,59.303v105.931c0,4.487-3.64,8.115-8.126,8.115h-5.286        c-4.487,0-8.127-3.628-8.127-8.115v-41.42v-23.103V59.303c0-4.487,3.64-8.126,8.127-8.126h5.286        C308.053,51.177,311.693,54.816,311.693,59.303z"/>
							<path style="fill:#252525;" d="M290.153,100.712v23.103c-2.792-1.981-4.821-3.759-8.449-3.64        c-11.146,0.346-55.74,0.083-58.556,0.072c-2.208-0.024-4.081-0.239-6.003,1.014c-1.229,0.799-2.398,1.706-3.592,2.554v-23.103        c2.423,1.718,4.487,3.687,7.625,3.64c10.239-0.143,51.074-0.179,61.206,0C285.595,104.411,287.671,102.478,290.153,100.712z"/>
							<path style="fill:#252525;" d="M213.554,123.814v41.42c0,4.487-3.64,8.115-8.126,8.115h-5.286        c-4.487,0-8.127-3.628-8.127-8.115V59.303c0-4.487,3.64-8.126,8.127-8.126h5.286c4.487,0,8.126,3.64,8.126,8.126v41.408        V123.814z"/>
							<path style="fill:#252525;" d="M192.014,59.303v105.931c0,4.487-3.628,8.115-8.115,8.115h-5.286        c-4.487,0-8.126-3.628-8.126-8.115V153.91V70.616V59.303c0-4.487,3.64-8.126,8.126-8.126h5.286        C188.387,51.177,192.014,54.816,192.014,59.303z"/>
							<path style="fill:#252525;" d="M170.487,70.616v83.294c0,4.487-3.64,8.115-8.127,8.115h-5.286        c-4.487,0-8.115-3.628-8.115-8.115v-28.783V99.399V70.616c0-4.487,3.628-8.115,8.115-8.115h5.286        C166.847,62.501,170.487,66.129,170.487,70.616z"/>
							<rect x="145.224" y="99.399" style="fill:#252525;" width="3.735" height="25.728"/>
							<polygon style="fill:#252525;" points="145.224,99.399 145.224,125.127 145.224,131.13 139.914,131.13 139.914,120.115         139.914,104.399 139.914,93.397 145.224,93.397       "/>
							<rect x="137.563" y="104.399" style="fill:#252525;" width="2.351" height="15.716"/>
							<polygon style="fill:#252525;" points="137.563,104.399 137.563,120.115 137.563,121.583 136.012,121.583 136.012,120.115         136.012,104.399 136.012,102.955 137.563,102.955       "/>
							<rect x="134.15" y="104.399" style="fill:#252525;" width="1.861" height="15.716"/>
							<polygon style="fill:#252525;" points="134.15,120.115 134.15,121.583 132.599,121.583 132.599,120.115 132.599,104.399         132.599,102.955 134.15,102.955 134.15,104.399       "/>
							<rect x="130.749" y="104.399" style="fill:#252525;" width="1.85" height="15.716"/>
							<polygon style="fill:#252525;" points="130.749,120.115 130.749,121.583 129.186,121.583 129.186,120.115 129.186,104.399         129.186,102.955 130.749,102.955 130.749,104.399       "/>
							<path style="fill:#252525;" d="M129.186,104.399v15.716h-1.313c-0.644,0-1.146-0.501-1.146-1.146v-13.425        c0-0.62,0.501-1.146,1.146-1.146H129.186z"/>
						</g>
					</g>
					<g style="opacity:0.41;">
						<g>
							<path style="fill:#FFFFFF;" d="M170.487,78.797v-8.174c0-4.487-3.637-8.124-8.124-8.124h-5.283        c-4.487,0-8.124,3.637-8.124,8.124v16.701C154.586,82.039,162.155,78.797,170.487,78.797z"/>
						</g>
						<g>
							<path style="fill:#FFFFFF;" d="M148.955,153.908c0,4.487,3.637,8.124,8.124,8.124h5.283c4.487,0,8.124-3.637,8.124-8.124        v-12.152c-8.331,0-15.901-3.242-21.532-8.526V153.908z"/>
						</g>
					</g>
					<g style="opacity:0.41;">
						<g>
							<path style="fill:#FFFFFF;" d="M191.566,67.588v-8.174c0-4.487-3.637-8.124-8.124-8.124h-5.283        c-4.487,0-8.124,3.637-8.124,8.124v16.701C175.664,70.83,183.234,67.588,191.566,67.588z"/>
						</g>
						<g>
							<path style="fill:#FFFFFF;" d="M170.034,165.227c0,4.487,3.638,8.124,8.124,8.124h5.283c4.487,0,8.124-3.637,8.124-8.124        v-12.152c-8.331,0-15.901-3.242-21.532-8.526V165.227z"/>
						</g>
					</g>
					<g style="opacity:0.41;">
						<g>
							<path style="fill:#FFFFFF;" d="M213.097,67.588v-8.174c0-4.487-3.637-8.124-8.124-8.124h-5.283        c-4.487,0-8.124,3.637-8.124,8.124v16.701C197.196,70.83,204.766,67.588,213.097,67.588z"/>
						</g>
						<g>
							<path style="fill:#FFFFFF;" d="M191.566,165.227c0,4.487,3.637,8.124,8.124,8.124h5.283c4.487,0,8.124-3.637,8.124-8.124        v-12.152c-8.331,0-15.901-3.242-21.532-8.526V165.227z"/>
						</g>
					</g>
					<g style="opacity:0.41;">
						<g>
							<path style="fill:#FFFFFF;" d="M332.809,78.797v-8.174c0-4.487,3.638-8.124,8.124-8.124h5.283        c4.487,0,8.124,3.637,8.124,8.124v16.701C348.711,82.039,341.141,78.797,332.809,78.797z"/>
						</g>
						<g>
							<path style="fill:#FFFFFF;" d="M354.341,153.908c0,4.487-3.637,8.124-8.124,8.124h-5.283c-4.487,0-8.124-3.637-8.124-8.124        v-12.152c8.331,0,15.901-3.242,21.532-8.526V153.908z"/>
						</g>
					</g>
					<g style="opacity:0.41;">
						<g>
							<path style="fill:#FFFFFF;" d="M311.731,67.588v-8.174c0-4.487,3.638-8.124,8.124-8.124h5.283        c4.487,0,8.124,3.637,8.124,8.124v16.701C327.632,70.83,320.062,67.588,311.731,67.588z"/>
						</g>
						<g>
							<path style="fill:#FFFFFF;" d="M333.262,165.227c0,4.487-3.637,8.124-8.124,8.124h-5.283c-4.487,0-8.124-3.637-8.124-8.124        v-12.152c8.331,0,15.901-3.242,21.532-8.526V165.227z"/>
						</g>
					</g>
					<g style="opacity:0.41;">
						<g>
							<path style="fill:#FFFFFF;" d="M290.199,67.588v-8.174c0-4.487,3.637-8.124,8.124-8.124h5.283        c4.487,0,8.124,3.637,8.124,8.124v16.701C306.1,70.83,298.53,67.588,290.199,67.588z"/>
						</g>
						<g>
							<path style="fill:#FFFFFF;" d="M311.731,165.227c0,4.487-3.637,8.124-8.124,8.124h-5.283c-4.487,0-8.124-3.637-8.124-8.124        v-12.152c8.331,0,15.901-3.242,21.532-8.526V165.227z"/>
						</g>
					</g>
				</g>
				<g>
					<g>
						<path d="M204.973,176.335h-5.284c-6.124,0-11.107-4.983-11.107-11.108V59.296c0-6.125,4.983-11.108,11.107-11.108h5.284       c6.124,0,11.107,4.983,11.107,11.108v105.931C216.08,171.352,211.097,176.335,204.973,176.335z M199.689,54.154       c-2.834,0-5.14,2.306-5.14,5.142v105.931c0,2.835,2.306,5.141,5.14,5.141h5.284c2.834,0,5.14-2.306,5.14-5.141V59.296       c0-2.835-2.306-5.142-5.14-5.142H199.689z"/>
					</g>
					<g>
						<path d="M183.441,176.335h-5.283c-6.125,0-11.108-4.983-11.108-11.108V59.296c0-6.125,4.983-11.108,11.108-11.108h5.283       c6.125,0,11.108,4.983,11.108,11.108v105.931C194.549,171.352,189.566,176.335,183.441,176.335z M178.158,54.154       c-2.835,0-5.142,2.306-5.142,5.142v105.931c0,2.835,2.306,5.141,5.142,5.141h5.283c2.835,0,5.141-2.306,5.141-5.141V59.296       c0-2.835-2.306-5.142-5.141-5.142H178.158z"/>
					</g>
					<g>
						<path d="M161.91,165.012h-5.284c-6.124,0-11.107-4.983-11.107-11.108V70.619c0-6.125,4.983-11.108,11.107-11.108h5.284       c6.124,0,11.107,4.983,11.107,11.108v83.286C173.017,160.029,168.034,165.012,161.91,165.012z M156.626,65.478       c-2.834,0-5.14,2.306-5.14,5.141v83.286c0,2.835,2.306,5.141,5.14,5.141h5.284c2.834,0,5.14-2.306,5.14-5.141V70.619       c0-2.835-2.306-5.141-5.14-5.141H156.626z"/>
					</g>
					<g>
						<path d="M148.502,126.92h-3.726c-0.988,0-1.79-0.801-1.79-1.79V99.393c0-0.989,0.802-1.79,1.79-1.79h3.726       c0.988,0,1.79,0.801,1.79,1.79v25.737C150.292,126.119,149.491,126.92,148.502,126.92z M146.567,123.34h0.146v-22.157h-0.146       V123.34z"/>
					</g>
					<g>
						<path d="M144.777,132.913h-5.318c-0.988,0-1.79-0.801-1.79-1.79V93.4c0-0.989,0.802-1.79,1.79-1.79h5.318       c0.988,0,1.79,0.801,1.79,1.79v37.724C146.567,132.112,145.765,132.913,144.777,132.913z M141.249,129.333h1.738V95.19h-1.738       V129.333z"/>
					</g>
					<g>
						<path d="M132.15,121.909h-1.862c-0.988,0-1.79-0.801-1.79-1.79c0-0.989,0.802-1.79,1.79-1.79h1.862       c0.988,0,1.79,0.801,1.79,1.79C133.94,121.108,133.138,121.909,132.15,121.909z"/>
					</g>
					<g>
						<path d="M132.15,106.189h-1.862c-0.988,0-1.79-0.801-1.79-1.79s0.802-1.79,1.79-1.79h1.862c0.988,0,1.79,0.801,1.79,1.79       S133.138,106.189,132.15,106.189z"/>
					</g>
					<g>
						<path d="M139.464,121.909h-2.36c-0.988,0-1.79-0.801-1.79-1.79c0-0.989,0.802-1.79,1.79-1.79h0.57v-12.14h-0.57       c-0.988,0-1.79-0.801-1.79-1.79s0.802-1.79,1.79-1.79h2.36c0.988,0,1.79,0.801,1.79,1.79v15.72       C141.254,121.108,140.452,121.909,139.464,121.909z"/>
					</g>
					<g>
						<path d="M135.553,121.909h-1.852c-0.988,0-1.79-0.801-1.79-1.79c0-0.989,0.802-1.79,1.79-1.79h1.852       c0.988,0,1.79,0.801,1.79,1.79C137.343,121.108,136.541,121.909,135.553,121.909z"/>
					</g>
					<g>
						<path d="M135.553,106.189h-1.852c-0.988,0-1.79-0.801-1.79-1.79s0.802-1.79,1.79-1.79h1.852c0.988,0,1.79,0.801,1.79,1.79       S136.541,106.189,135.553,106.189z"/>
					</g>
					<g>
						<path d="M128.737,121.909h-1.316c-1.62,0-2.938-1.317-2.938-2.937v-13.426c0-1.619,1.318-2.937,2.938-2.937h1.316       c0.988,0,1.79,0.801,1.79,1.79s-0.802,1.79-1.79,1.79h-0.674v12.14h0.674c0.988,0,1.79,0.801,1.79,1.79       C130.527,121.108,129.725,121.909,128.737,121.909z"/>
					</g>
					<g>
						<path d="M303.112,176.335h-5.284c-6.124,0-11.107-4.983-11.107-11.108V59.296c0-6.125,4.983-11.108,11.107-11.108h5.284       c6.124,0,11.107,4.983,11.107,11.108v105.931C314.219,171.352,309.236,176.335,303.112,176.335z M297.829,54.154       c-2.834,0-5.14,2.306-5.14,5.142v105.931c0,2.835,2.306,5.141,5.14,5.141h5.284c2.834,0,5.14-2.306,5.14-5.141V59.296       c0-2.835-2.306-5.142-5.14-5.142H297.829z"/>
					</g>
					<g>
						<path d="M324.643,176.335h-5.283c-6.125,0-11.108-4.983-11.108-11.108V59.296c0-6.125,4.983-11.108,11.108-11.108h5.283       c6.125,0,11.108,4.983,11.108,11.108v105.931C335.752,171.352,330.769,176.335,324.643,176.335z M319.361,54.154       c-2.835,0-5.142,2.306-5.142,5.142v105.931c0,2.835,2.306,5.141,5.142,5.141h5.283c2.835,0,5.142-2.306,5.142-5.141V59.296       c0-2.835-2.306-5.142-5.142-5.142H319.361z"/>
					</g>
					<g>
						<path d="M346.176,165.012h-5.284c-6.124,0-11.107-4.983-11.107-11.108V70.619c0-6.125,4.983-11.108,11.107-11.108h5.284       c6.124,0,11.107,4.983,11.107,11.108v83.286C357.283,160.029,352.3,165.012,346.176,165.012z M340.892,65.478       c-2.834,0-5.14,2.306-5.14,5.141v83.286c0,2.835,2.306,5.141,5.14,5.141h5.284c2.834,0,5.14-2.306,5.14-5.141V70.619       c0-2.835-2.306-5.141-5.14-5.141H340.892z"/>
					</g>
					<g>
						<path d="M372.512,106.189h-1.852c-0.988,0-1.79-0.801-1.79-1.79s0.802-1.79,1.79-1.79h1.852c0.988,0,1.79,0.801,1.79,1.79       S373.5,106.189,372.512,106.189z"/>
					</g>
					<g>
						<path d="M372.512,121.909h-1.852c-0.988,0-1.79-0.801-1.79-1.79c0-0.989,0.802-1.79,1.79-1.79h1.852       c0.988,0,1.79,0.801,1.79,1.79C374.302,121.108,373.5,121.909,372.512,121.909z"/>
					</g>
					<g>
						<path d="M369.098,121.909h-5.432c-0.988,0-1.79-0.801-1.79-1.79c0-0.989,0.802-1.79,1.79-1.79h5.432       c0.988,0,1.79,0.801,1.79,1.79C370.888,121.108,370.087,121.909,369.098,121.909z"/>
					</g>
					<g>
						<path d="M375.389,121.909h-1.326c-0.988,0-1.79-0.801-1.79-1.79c0-0.989,0.802-1.79,1.79-1.79h0.683v-12.14h-0.683       c-0.988,0-1.79-0.801-1.79-1.79s0.802-1.79,1.79-1.79h1.326c1.62,0,2.937,1.318,2.937,2.937v13.426       C378.326,120.591,377.009,121.909,375.389,121.909z M375.389,106.189h0.012H375.389z"/>
					</g>
					<g>
						<path d="M369.098,106.189h-5.432c-0.988,0-1.79-0.801-1.79-1.79s0.802-1.79,1.79-1.79h5.432c0.988,0,1.79,0.801,1.79,1.79       S370.087,106.189,369.098,106.189z"/>
					</g>
					<g>
						<path d="M213.098,126.797c-0.469,0-0.938-0.11-1.37-0.333c-0.991-0.512-1.613-1.534-1.613-2.65v-23.1       c0-1.115,0.621-2.136,1.611-2.649c0.989-0.512,2.18-0.432,3.094,0.212c0.397,0.281,0.787,0.568,1.171,0.853       c1.952,1.443,3.124,2.26,4.692,2.236c10.424-0.149,51.287-0.172,61.301,0.004c1.661,0.044,2.868-0.803,4.872-2.278       c0.369-0.272,0.742-0.546,1.125-0.816c0.911-0.643,2.105-0.724,3.094-0.212c0.989,0.513,1.611,1.534,1.611,2.649v23.1       c0,1.116-0.622,2.138-1.613,2.65c-0.992,0.513-2.185,0.429-3.095-0.216l-0.86-0.616c-2.388-1.722-3.618-2.543-5.777-2.48       c-11.527,0.361-58.204,0.076-58.665,0.073l-0.852-0.013c-1.749-0.034-2.63-0.025-3.502,0.546       c-0.759,0.497-1.494,1.035-2.229,1.572c-0.422,0.309-0.844,0.617-1.269,0.918C214.309,126.612,213.705,126.797,213.098,126.797       z M281.577,117.181c2.031,0,3.685,0.467,5.142,1.158v-12.088c-1.384,0.666-2.944,1.109-4.84,1.085       c-9.98-0.175-50.717-0.153-61.11-0.004c-1.846,0.045-3.342-0.414-4.687-1.063v11.913c2.079-1.007,4.066-0.973,5.856-0.936       l0.779,0.012c0.46,0.003,47.017,0.288,58.438-0.07C281.297,117.183,281.438,117.181,281.577,117.181z"/>
					</g>
					<g>
						<path d="M130.288,123.878c-0.988,0-1.79-0.801-1.79-1.79v-21.331c0-0.989,0.802-1.79,1.79-1.79c0.988,0,1.79,0.801,1.79,1.79       v21.331C132.078,123.077,131.276,123.878,130.288,123.878z"/>
					</g>
					<g>
						<path d="M135.08,124.177c-0.988,0-1.79-0.801-1.79-1.79v-21.331c0-0.989,0.802-1.79,1.79-1.79s1.79,0.801,1.79,1.79v21.331       C136.87,123.375,136.068,124.177,135.08,124.177z"/>
					</g>
					<g>
						<path d="M367.707,123.958c-0.988,0-1.79-0.801-1.79-1.79v-21.331c0-0.989,0.802-1.79,1.79-1.79s1.79,0.801,1.79,1.79v21.331       C369.497,123.156,368.695,123.958,367.707,123.958z"/>
					</g>
					<g>
						<path d="M372.499,124.256c-0.988,0-1.79-0.801-1.79-1.79v-21.331c0-0.989,0.802-1.79,1.79-1.79c0.988,0,1.79,0.801,1.79,1.79       v21.331C374.289,123.455,373.487,124.256,372.499,124.256z"/>
					</g>
					<g>
						<path d="M363.343,132.913h-5.318c-0.988,0-1.79-0.801-1.79-1.79V93.4c0-0.989,0.802-1.79,1.79-1.79h5.318       c0.988,0,1.79,0.801,1.79,1.79v37.724C365.133,132.112,364.331,132.913,363.343,132.913z M359.815,129.333h1.738V95.19h-1.738       V129.333z"/>
					</g>
				</g>
			</g>
			<g>
				<g>
					<g>
						<polygon style="fill:#FFFFFF;" points="135.597,301.474 54.738,301.474 77.411,269.937 54.738,238.4 135.597,238.4      "/>
						<path style="fill:#12255E;" d="M135.597,305.054H54.738c-1.343,0-2.573-0.752-3.186-1.947c-0.612-1.194-0.505-2.633,0.28-3.722       l21.17-29.447l-21.17-29.447c-0.784-1.09-0.891-2.528-0.28-3.722c0.613-1.196,1.844-1.947,3.186-1.947h80.859       c1.978,0,3.58,1.602,3.58,3.58v63.074C139.177,303.451,137.575,305.054,135.597,305.054z M61.721,297.894h70.297V241.98H61.721       l18.597,25.867c0.898,1.248,0.898,2.931,0,4.179L61.721,297.894z"/>
					</g>
					<g>
						<g>
							<polygon style="fill:#12255E;" points="92.747,281.533 135.597,301.474 135.597,281.533       "/>
							<path style="fill:#12255E;" d="M135.597,305.054c-0.514,0-1.03-0.111-1.51-0.334l-42.85-19.94        c-1.522-0.709-2.348-2.38-1.985-4.019c0.362-1.64,1.816-2.806,3.495-2.806h42.85c1.978,0,3.58,1.602,3.58,3.58v19.94        c0,1.222-0.625,2.361-1.655,3.018C136.937,304.865,136.268,305.054,135.597,305.054z M108.926,285.113l23.092,10.746v-10.746        H108.926z"/>
						</g>
						<g>
							<line style="fill:#FFFFFF;" x1="103.858" y1="285.169" x2="117.326" y2="301.474"/>
							<path style="fill:#12255E;" d="M117.328,302.667c-0.344,0-0.685-0.148-0.921-0.434l-13.468-16.305        c-0.421-0.508-0.348-1.26,0.16-1.679c0.509-0.421,1.261-0.347,1.679,0.16l13.468,16.304c0.421,0.508,0.348,1.26-0.16,1.679        C117.864,302.577,117.595,302.667,117.328,302.667z"/>
						</g>
						<g>
							<line style="fill:#FFFFFF;" x1="66.002" y1="239.337" x2="91.664" y2="270.405"/>
							<path style="fill:#12255E;" d="M91.666,271.599c-0.344,0-0.685-0.148-0.922-0.434l-25.662-31.068        c-0.42-0.508-0.347-1.26,0.161-1.68c0.51-0.418,1.262-0.346,1.679,0.161l25.663,31.068c0.42,0.508,0.347,1.26-0.161,1.68        C92.202,271.509,91.932,271.599,91.666,271.599z"/>
						</g>
						<g>
							<line style="fill:#FFFFFF;" x1="78.901" y1="238.868" x2="92.747" y2="255.632"/>
							<path style="fill:#12255E;" d="M92.748,256.826c-0.344,0-0.685-0.148-0.922-0.434l-13.846-16.764        c-0.421-0.508-0.348-1.26,0.16-1.679c0.511-0.42,1.261-0.347,1.681,0.16l13.846,16.764c0.421,0.508,0.348,1.26-0.16,1.679        C93.284,256.736,93.015,256.826,92.748,256.826z"/>
						</g>
						<g>
							<line style="fill:#FFFFFF;" x1="103.55" y1="302.803" x2="78.251" y2="272.174"/>
							<path style="fill:#12255E;" d="M103.551,303.997c-0.344,0-0.685-0.148-0.922-0.434l-25.299-30.629        c-0.42-0.508-0.347-1.26,0.161-1.68c0.509-0.418,1.261-0.346,1.68,0.161l25.299,30.629c0.42,0.508,0.347,1.26-0.161,1.68        C104.087,303.907,103.818,303.997,103.551,303.997z"/>
						</g>
						<g>
							<line style="fill:#FFFFFF;" x1="71.653" y1="278.377" x2="90.9" y2="301.68"/>
							<path style="fill:#12255E;" d="M90.901,302.873c-0.344,0-0.685-0.148-0.922-0.434l-19.247-23.304        c-0.42-0.508-0.347-1.26,0.161-1.68c0.509-0.417,1.261-0.345,1.68,0.161l19.247,23.304c0.42,0.508,0.347,1.26-0.161,1.68        C91.437,302.784,91.168,302.873,90.901,302.873z"/>
						</g>
						<g>
							<line style="fill:#FFFFFF;" x1="66.247" y1="285.465" x2="79.47" y2="301.474"/>
							<path style="fill:#12255E;" d="M79.471,302.667c-0.344,0-0.685-0.148-0.921-0.434l-13.223-16.009        c-0.421-0.508-0.348-1.26,0.16-1.679c0.51-0.421,1.261-0.347,1.679,0.16l13.223,16.008c0.421,0.508,0.348,1.26-0.16,1.679        C80.007,302.577,79.738,302.667,79.471,302.667z"/>
						</g>
						<g>
							<line style="fill:#FFFFFF;" x1="59.488" y1="294.057" x2="66.002" y2="301.944"/>
							<path style="fill:#12255E;" d="M66.003,303.137c-0.344,0-0.685-0.148-0.921-0.434l-6.514-7.886        c-0.421-0.508-0.348-1.26,0.16-1.679c0.509-0.42,1.262-0.347,1.679,0.16l6.514,7.886c0.421,0.508,0.348,1.26-0.16,1.679        C66.539,303.047,66.27,303.137,66.003,303.137z"/>
						</g>
					</g>
				</g>
				<g>
					<g>
						<polygon style="fill:#FFFFFF;" points="370.014,301.474 450.873,301.474 428.2,269.937 450.873,238.4 370.014,238.4      "/>
						<path style="fill:#12255E;" d="M450.872,305.054h-80.858c-1.978,0-3.58-1.602-3.58-3.58V238.4c0-1.978,1.602-3.58,3.58-3.58       h80.858c1.343,0,2.573,0.752,3.186,1.947c0.612,1.195,0.505,2.633-0.28,3.722l-21.17,29.447l21.17,29.447       c0.784,1.09,0.892,2.528,0.28,3.722C453.446,304.302,452.215,305.054,450.872,305.054z M373.594,297.894h70.295l-18.597-25.867       c-0.899-1.248-0.899-2.931,0-4.179l18.597-25.867h-70.295V297.894z"/>
					</g>
					<g>
						<g>
							<polygon style="fill:#12255E;" points="412.864,281.533 370.014,301.474 370.014,281.533       "/>
							<path style="fill:#12255E;" d="M370.014,305.054c-0.671,0-1.34-0.189-1.925-0.562c-1.03-0.657-1.655-1.796-1.655-3.018v-19.94        c0-1.978,1.602-3.58,3.58-3.58h42.85c1.679,0,3.133,1.167,3.495,2.806c0.364,1.64-0.463,3.311-1.985,4.019l-42.85,19.94        C371.044,304.943,370.528,305.054,370.014,305.054z M373.594,285.113v10.746l23.092-10.746H373.594z"/>
						</g>
						<g>
							<line style="fill:#FFFFFF;" x1="401.753" y1="285.169" x2="388.285" y2="301.474"/>
							<path style="fill:#12255E;" d="M388.284,302.667c-0.267,0-0.536-0.09-0.759-0.274c-0.508-0.419-0.58-1.171-0.16-1.679        l13.468-16.304c0.417-0.508,1.169-0.582,1.679-0.16c0.508,0.419,0.58,1.171,0.16,1.679l-13.468,16.305        C388.969,302.519,388.627,302.667,388.284,302.667z"/>
						</g>
						<g>
							<line style="fill:#FFFFFF;" x1="439.609" y1="239.337" x2="413.947" y2="270.405"/>
							<path style="fill:#12255E;" d="M413.946,271.599c-0.267,0-0.536-0.09-0.759-0.273c-0.508-0.421-0.58-1.172-0.161-1.68        l25.662-31.068c0.421-0.508,1.17-0.58,1.68-0.161c0.508,0.421,0.58,1.172,0.161,1.68l-25.664,31.068        C414.631,271.451,414.29,271.599,413.946,271.599z"/>
						</g>
						<g>
							<line style="fill:#FFFFFF;" x1="426.71" y1="238.868" x2="412.864" y2="255.632"/>
							<path style="fill:#12255E;" d="M412.863,256.826c-0.267,0-0.536-0.09-0.759-0.273c-0.508-0.421-0.58-1.172-0.161-1.681        l13.846-16.764c0.42-0.508,1.171-0.579,1.68-0.161c0.508,0.421,0.58,1.172,0.161,1.68l-13.846,16.764        C413.548,256.678,413.207,256.826,412.863,256.826z"/>
						</g>
						<g>
							<line style="fill:#FFFFFF;" x1="402.061" y1="302.803" x2="427.36" y2="272.174"/>
							<path style="fill:#12255E;" d="M402.06,303.997c-0.267,0-0.536-0.09-0.759-0.273c-0.508-0.421-0.58-1.172-0.161-1.68        l25.299-30.629c0.42-0.508,1.17-0.58,1.68-0.161c0.508,0.421,0.58,1.172,0.161,1.68l-25.299,30.629        C402.746,303.849,402.404,303.997,402.06,303.997z"/>
						</g>
						<g>
							<line style="fill:#FFFFFF;" x1="433.959" y1="278.377" x2="414.711" y2="301.68"/>
							<path style="fill:#12255E;" d="M414.709,302.873c-0.267,0-0.536-0.09-0.759-0.273c-0.508-0.421-0.58-1.172-0.161-1.68        l19.248-23.304c0.419-0.507,1.17-0.579,1.68-0.161c0.508,0.421,0.58,1.172,0.161,1.68l-19.248,23.304        C415.394,302.725,415.053,302.873,414.709,302.873z"/>
						</g>
						<g>
							<line style="fill:#FFFFFF;" x1="439.364" y1="285.465" x2="426.141" y2="301.474"/>
							<path style="fill:#12255E;" d="M426.14,302.667c-0.267,0-0.536-0.09-0.759-0.273c-0.508-0.421-0.58-1.172-0.161-1.681        l13.222-16.008c0.42-0.508,1.17-0.58,1.681-0.161c0.508,0.421,0.58,1.172,0.161,1.68l-13.222,16.009        C426.825,302.519,426.484,302.667,426.14,302.667z"/>
						</g>
						<g>
							<line style="fill:#FFFFFF;" x1="446.123" y1="294.057" x2="439.609" y2="301.944"/>
							<path style="fill:#12255E;" d="M439.608,303.137c-0.267,0-0.536-0.09-0.759-0.274c-0.508-0.42-0.58-1.171-0.16-1.679        l6.514-7.886c0.417-0.508,1.169-0.581,1.679-0.16c0.508,0.42,0.58,1.171,0.16,1.679l-6.514,7.886        C440.293,302.989,439.952,303.137,439.608,303.137z"/>
						</g>
					</g>
				</g>
				<g>
					<g>
						<rect x="92.747" y="212.32" style="fill:#FFFFFF;" width="322.162" height="69.213"/>
						<path style="fill:#12255E;" d="M414.91,285.113H92.747c-1.978,0-3.58-1.602-3.58-3.58V212.32c0-1.977,1.602-3.58,3.58-3.58       H414.91c1.978,0,3.58,1.603,3.58,3.58v69.213C418.49,283.511,416.887,285.113,414.91,285.113z M96.327,277.953H411.33V215.9       H96.327V277.953z"/>
					</g>
					<g>
						<rect x="104.563" y="226.597" style="fill:none;" width="296.464" height="47.023"/>
						<text transform="matrix(0.9093 0 0 1 112.3435 265.571)">
							<tspan x="50" y="0" style="fill:#12255E; font-family:'HouseSlant-Regular'; font-size:54.8929px;">Pump</tspan>
							<tspan x="185.191" y="0" style="fill:#12255E; font-family:'HouseSlant-Regular'; font-size:54.8929px;">Up</tspan>
						</text>
					</g>
				</g>
				<g>
					<g>
						<polygon style="fill:#12255E;" points="114.605,236.755 117.39,242.255 123.5,243.078 119.129,247.427 120.234,253.492        114.748,250.679 109.321,253.604 110.301,247.518 105.842,243.26 111.933,242.311      "/>
					</g>
					<g>
						<polygon style="fill:#12255E;" points="391.373,239.729 394.158,245.229 400.268,246.052 395.898,250.401 397.002,256.466        391.516,253.653 386.089,256.578 387.069,250.492 382.61,246.234 388.702,245.285      "/>
					</g>
				</g>
			</g>
			<rect x="161.788" y="182.699" style="fill:none;" width="180.953" height="23.198"/>


			<rect x="161.788" y="292.723" style="fill:none;" width="180.953" height="17.502"/>


			<g>
				<g>
					<polygon style="fill:#FFFFFF;" points="190.737,319.541 192.015,322.065 194.818,322.443 192.813,324.438 193.32,327.22       190.803,325.93 188.313,327.272 188.762,324.479 186.717,322.526 189.511,322.09     "/>
				</g>
				<g>
					<polygon style="fill:#FFFFFF;" points="204.244,329.428 205.521,331.951 208.325,332.329 206.32,334.324 206.826,337.107       204.309,335.816 201.819,337.158 202.269,334.366 200.223,332.413 203.018,331.977     "/>
				</g>
				<g>
					<polygon style="fill:#FFFFFF;" points="218.979,338.133 220.257,340.656 223.06,341.034 221.055,343.029 221.562,345.812       219.045,344.522 216.555,345.863 217.005,343.071 214.959,341.118 217.754,340.682     "/>
				</g>
				<g>
					<polygon style="fill:#FFFFFF;" points="234.717,345.128 235.994,347.651 238.798,348.029 236.793,350.024 237.299,352.807       234.782,351.516 232.292,352.858 232.742,350.066 230.696,348.112 233.491,347.677     "/>
				</g>
				<g>
					<polygon style="fill:#FFFFFF;" points="315.344,319.541 314.066,322.065 311.263,322.443 313.268,324.438 312.761,327.22       315.278,325.93 317.768,327.272 317.319,324.479 319.364,322.526 316.57,322.09     "/>
				</g>
				<g>
					<polygon style="fill:#FFFFFF;" points="301.838,329.428 300.56,331.951 297.757,332.329 299.762,334.324 299.255,337.107       301.772,335.816 304.262,337.158 303.812,334.366 305.858,332.413 303.063,331.977     "/>
				</g>
				<g>
					<polygon style="fill:#FFFFFF;" points="287.102,338.133 285.824,340.656 283.021,341.034 285.026,343.029 284.519,345.812       287.036,344.522 289.526,345.863 289.077,343.071 291.122,341.118 288.327,340.682     "/>
				</g>
				<g>
					<polygon style="fill:#FFFFFF;" points="271.365,345.128 270.087,347.651 267.284,348.029 269.289,350.024 268.782,352.807       271.299,351.516 273.789,352.858 273.339,350.066 275.385,348.112 272.59,347.677     "/>
				</g>
				<g>
					<polygon style="fill:#FFFFFF;" points="253.29,347.391 255.665,352.08 260.873,352.782 257.148,356.489 258.089,361.66       253.412,359.262 248.786,361.755 249.621,356.566 245.82,352.937 251.013,352.127     "/>
				</g>
			</g>
		</g>
	</g>
</svg>